<?xml version="1.0" encoding="UTF-8" standalone="no"?> <!-- Created with Vectornator for iOS (http://vectornator.io/) --><!DOCTYPE svg PUBLIC "-//W3C//DTD SVG 1.1//EN" "http://www.w3.org/Graphics/SVG/1.1/DTD/svg11.dtd">
<svg height="100%" style="fill-rule:nonzero;clip-rule:evenodd;stroke-linecap:round;stroke-linejoin:round;" xmlns:xlink="http://www.w3.org/1999/xlink" xmlns="http://www.w3.org/2000/svg" xml:space="preserve" width="100%" xmlns:vectornator="http://vectornator.io" version="1.1" viewBox="0 0 122 116">
<metadata>
<vectornator:setting key="DimensionsVisible" value="0"/>
<vectornator:setting key="PencilOnly" value="0"/>
<vectornator:setting key="SnapToPoints" value="0"/>
<vectornator:setting key="OutlineMode" value="0"/>
<vectornator:setting key="CMYKEnabledKey" value="0"/>
<vectornator:setting key="RulersVisible" value="1"/>
<vectornator:setting key="SnapToEdges" value="0"/>
<vectornator:setting key="GuidesVisible" value="0"/>
<vectornator:setting key="DisplayWhiteBackground" value="0"/>
<vectornator:setting key="doHistoryDisabled" value="0"/>
<vectornator:setting key="SnapToGuides" value="1"/>
<vectornator:setting key="TimeLapseWatermarkDisabled" value="0"/>
<vectornator:setting key="Units" value="Points"/>
<vectornator:setting key="DynamicGuides" value="1"/>
<vectornator:setting key="IsolateActiveLayer" value="0"/>
<vectornator:setting key="SnapToGrid" value="0"/>
</metadata>
<defs/>
<g id="Untitled" vectornator:layerName="Untitled">
<g opacity="1">
<path d="M0+29.291C0+13.2747+12.9837+0.290997+29+0.290997C45.016+0.290997+58+13.2747+58+29.291C58+45.3073+45.016+58.291+29+58.291C12.9837+58.291+0+45.3073+0+29.291Z" fill-rule="evenodd" fill="#f5f3f3" opacity="1"/>
<path d="M29+39.5463L29+49.647L41.4313+32.1917L29+39.5463Z" fill-rule="evenodd" fill="#2f3030" opacity="1"/>
<path d="M29+23.9603L29+36.9617L41.4313+29.6063L29+23.9603Z" fill-rule="evenodd" fill="#191326" opacity="1"/>
<path d="M29+8.991L29+23.9603L41.4313+29.6063L29+8.991Z" fill-rule="evenodd" fill="#2f3030" opacity="1"/>
<path d="M29+39.5463L29+49.647L16.5687+32.191L29+39.5463Z" fill-rule="evenodd" fill="#828384" opacity="1"/>
<path d="M29+23.9603L29+36.9617L16.5687+29.6063L29+23.9603Z" fill-rule="evenodd" fill="#343535" opacity="1"/>
<path d="M29+8.991L29+23.9603L16.5687+29.6063L29+8.991Z" fill-rule="evenodd" fill="#828384" opacity="1"/>
<path stroke="#191326" stroke-width="2.837" d="M0.945333+29.291C0.945333+13.7969+13.5059+1.23633+29+1.23633C44.494+1.23633+57.0547+13.7969+57.0547+29.291C57.0547+44.7851+44.494+57.3457+29+57.3457C13.5059+57.3457+0.945333+44.7851+0.945333+29.291Z" fill="none" stroke-linecap="butt" opacity="0.2" stroke-linejoin="miter"/>
</g>
<g opacity="1">
<path d="M120.705+83.0112C114.919+106.348+91.2602+120.491+67.9872+114.705C44.7142+108.919+30.5052+85.2612+36.2912+61.9892C42.0772+38.6522+65.6722+24.5092+89.0102+30.2952C112.347+36.1452+126.491+59.7392+120.705+83.0112Z" opacity="1" fill="#f7941d"/>
<path d="M97.3482+66.0342C98.1832+60.2482+93.8122+57.1622+87.7682+55.0412L89.6972+47.1982L84.9392+45.9772L83.0112+53.6272L79.2182+52.7272L81.1462+45.0122L76.3892+43.7912L74.4602+51.6342C73.4312+51.3772+72.4032+51.1842+71.4382+50.9272L64.8812+49.2552L63.5952+54.3342L67.0672+55.1702C68.9952+55.6842+69.3812+56.9062+69.3172+57.9342L67.0672+66.8702C67.1952+66.9342+67.3882+66.9342+67.5812+66.9992C67.4522+66.9352+67.2592+66.9352+67.0672+66.8702L63.9162+79.4062C63.6592+79.9852+63.0812+80.8852+61.7302+80.5632C61.7952+80.6272+58.2592+79.7272+58.2592+79.7272L55.8802+85.1922L62.1162+86.7352L65.5242+87.6352L63.5312+95.5422L68.2882+96.7632L70.2172+88.9202C71.5032+89.3062+72.7882+89.6272+74.0102+89.8842L72.0812+97.6632L76.8392+98.8842L78.8322+90.9772C86.9972+92.5202+93.1042+91.8772+95.6762+84.5482C97.7332+78.6332+95.5472+75.2262+91.3042+72.9762C94.3902+72.3332+96.7052+70.2762+97.3482+66.0332L97.3482+66.0342ZM86.4182+81.3352C84.9392+87.2502+74.9742+84.0352+71.6962+83.2642L74.3312+72.7852C77.6102+73.5562+87.9612+75.1642+86.4182+81.3352ZM87.8972+65.9702C86.5472+71.3702+78.2532+68.6062+75.5532+67.9632L77.9322+58.4482C80.6322+59.0912+89.3112+60.3122+87.8972+65.9702Z" opacity="1" fill="#fffdfa"/>
<path stroke="#191326" stroke-width="2.837" d="M36.4182+72.5002C36.4182+49.2589+55.259+30.4182+78.5002+30.4182C101.741+30.4182+120.582+49.2589+120.582+72.5002C120.582+95.7414+101.741+114.582+78.5002+114.582C55.259+114.582+36.4182+95.7414+36.4182+72.5002Z" fill="none" stroke-linecap="butt" opacity="0.2" stroke-linejoin="miter"/>
</g>
</g>
</svg>
