<?xml version="1.0" encoding="UTF-8" standalone="no"?> <!-- Created with Vectornator for iOS (http://vectornator.io/) --><!DOCTYPE svg PUBLIC "-//W3C//DTD SVG 1.1//EN" "http://www.w3.org/Graphics/SVG/1.1/DTD/svg11.dtd">
<svg height="100%" style="fill-rule:nonzero;clip-rule:evenodd;stroke-linecap:round;stroke-linejoin:round;" xmlns:xlink="http://www.w3.org/1999/xlink" xmlns="http://www.w3.org/2000/svg" xml:space="preserve" width="100%" xmlns:vectornator="http://vectornator.io" version="1.1" viewBox="0 0 122 116">
<metadata>
<vectornator:setting key="DimensionsVisible" value="0"/>
<vectornator:setting key="PencilOnly" value="0"/>
<vectornator:setting key="SnapToPoints" value="0"/>
<vectornator:setting key="OutlineMode" value="0"/>
<vectornator:setting key="CMYKEnabledKey" value="0"/>
<vectornator:setting key="RulersVisible" value="1"/>
<vectornator:setting key="SnapToEdges" value="0"/>
<vectornator:setting key="GuidesVisible" value="0"/>
<vectornator:setting key="DisplayWhiteBackground" value="0"/>
<vectornator:setting key="doHistoryDisabled" value="0"/>
<vectornator:setting key="SnapToGuides" value="1"/>
<vectornator:setting key="TimeLapseWatermarkDisabled" value="0"/>
<vectornator:setting key="Units" value="Points"/>
<vectornator:setting key="DynamicGuides" value="1"/>
<vectornator:setting key="IsolateActiveLayer" value="0"/>
<vectornator:setting key="SnapToGrid" value="0"/>
</metadata>
<defs/>
<g id="Untitled" vectornator:layerName="Untitled">
<g opacity="1">
<path d="M0+29C0+12.9837+12.9837+0+29+0C45.0163+0+58+12.9837+58+29C58+45.0163+45.0163+58+29+58C12.9837+58+0+45.0163+0+29Z" opacity="1" fill="#f0b90b"/>
<path d="M18.185+29L13.748+33.468L9.28+29L13.748+24.532L18.185+29ZM29+18.185L36.642+25.827L41.11+21.359L33.469+13.748L29+9.28L16.921+21.358L21.389+25.826L29+18.185ZM44.252+24.532L39.815+29L44.283+33.468L48.72+29C48.72+29+44.252+24.532+44.252+24.532ZM29+39.815L21.359+32.173L16.922+36.641L29+48.72L41.109+36.611L36.641+32.174L29+39.815ZM29+33.468L33.468+29L29+24.532L24.532+29L29+33.468Z" opacity="1" fill="#fffdfa"/>
<path stroke="#191326" stroke-width="3" d="M1.5+29C1.5+13.8122+13.8122+1.5+29+1.5C44.1878+1.5+56.5+13.8122+56.5+29C56.5+44.1878+44.1878+56.5+29+56.5C13.8122+56.5+1.5+44.1878+1.5+29Z" fill="none" stroke-linecap="butt" opacity="0.1" stroke-linejoin="miter"/>
</g>
<g opacity="1">
<path d="M120.705+83.0112C114.919+106.348+91.2602+120.491+67.9872+114.705C44.7142+108.919+30.5052+85.2612+36.2912+61.9892C42.0772+38.6522+65.6722+24.5092+89.0102+30.2952C112.347+36.1452+126.491+59.7392+120.705+83.0112Z" opacity="1" fill="#f7941d"/>
<path d="M97.3482+66.0342C98.1832+60.2482+93.8122+57.1622+87.7682+55.0412L89.6972+47.1982L84.9392+45.9772L83.0112+53.6272L79.2182+52.7272L81.1462+45.0122L76.3892+43.7912L74.4602+51.6342C73.4312+51.3772+72.4032+51.1842+71.4382+50.9272L64.8812+49.2552L63.5952+54.3342L67.0672+55.1702C68.9952+55.6842+69.3812+56.9062+69.3172+57.9342L67.0672+66.8702C67.1952+66.9342+67.3882+66.9342+67.5812+66.9992C67.4522+66.9352+67.2592+66.9352+67.0672+66.8702L63.9162+79.4062C63.6592+79.9852+63.0812+80.8852+61.7302+80.5632C61.7952+80.6272+58.2592+79.7272+58.2592+79.7272L55.8802+85.1922L62.1162+86.7352L65.5242+87.6352L63.5312+95.5422L68.2882+96.7632L70.2172+88.9202C71.5032+89.3062+72.7882+89.6272+74.0102+89.8842L72.0812+97.6632L76.8392+98.8842L78.8322+90.9772C86.9972+92.5202+93.1042+91.8772+95.6762+84.5482C97.7332+78.6332+95.5472+75.2262+91.3042+72.9762C94.3902+72.3332+96.7052+70.2762+97.3482+66.0332L97.3482+66.0342ZM86.4182+81.3352C84.9392+87.2502+74.9742+84.0352+71.6962+83.2642L74.3312+72.7852C77.6102+73.5562+87.9612+75.1642+86.4182+81.3352ZM87.8972+65.9702C86.5472+71.3702+78.2532+68.6062+75.5532+67.9632L77.9322+58.4482C80.6322+59.0912+89.3112+60.3122+87.8972+65.9702Z" opacity="1" fill="#fffdfa"/>
<path stroke="#191326" stroke-width="2.837" d="M36.4182+72.5002C36.4182+49.2589+55.259+30.4182+78.5002+30.4182C101.741+30.4182+120.582+49.2589+120.582+72.5002C120.582+95.7414+101.741+114.582+78.5002+114.582C55.259+114.582+36.4182+95.7414+36.4182+72.5002Z" fill="none" stroke-linecap="butt" opacity="0.2" stroke-linejoin="miter"/>
</g>
</g>
</svg>
