<?xml version="1.0" encoding="UTF-8" standalone="no"?> <!-- Created with Vectornator for iOS (http://vectornator.io/) --><!DOCTYPE svg PUBLIC "-//W3C//DTD SVG 1.1//EN" "http://www.w3.org/Graphics/SVG/1.1/DTD/svg11.dtd">
<svg height="100%" style="fill-rule:nonzero;clip-rule:evenodd;stroke-linecap:round;stroke-linejoin:round;" xmlns:xlink="http://www.w3.org/1999/xlink" xmlns="http://www.w3.org/2000/svg" xml:space="preserve" width="100%" xmlns:vectornator="http://vectornator.io" version="1.1" viewBox="0 0 122 116">
<metadata>
<vectornator:setting key="DimensionsVisible" value="0"/>
<vectornator:setting key="PencilOnly" value="0"/>
<vectornator:setting key="SnapToPoints" value="0"/>
<vectornator:setting key="OutlineMode" value="0"/>
<vectornator:setting key="CMYKEnabledKey" value="0"/>
<vectornator:setting key="RulersVisible" value="1"/>
<vectornator:setting key="SnapToEdges" value="0"/>
<vectornator:setting key="GuidesVisible" value="0"/>
<vectornator:setting key="DisplayWhiteBackground" value="0"/>
<vectornator:setting key="doHistoryDisabled" value="0"/>
<vectornator:setting key="SnapToGuides" value="1"/>
<vectornator:setting key="TimeLapseWatermarkDisabled" value="0"/>
<vectornator:setting key="Units" value="Points"/>
<vectornator:setting key="DynamicGuides" value="1"/>
<vectornator:setting key="IsolateActiveLayer" value="0"/>
<vectornator:setting key="SnapToGrid" value="0"/>
</metadata>
<defs/>
<g id="Untitled" vectornator:layerName="Untitled">
<g opacity="1">
<path d="M0+29.5115C0+13.4952+12.9837+0.511499+29+0.511499C45.0163+0.511499+58+13.4952+58+29.5115C58+45.5278+45.0163+58.5115+29+58.5115C12.9837+58.5115+0+45.5278+0+29.5115Z" opacity="1" fill="#f0b90b"/>
<path d="M18.185+29.5115L13.748+33.9795L9.28+29.5115L13.748+25.0435L18.185+29.5115ZM29+18.6965L36.642+26.3385L41.11+21.8705L33.469+14.2595L29+9.7915L16.921+21.8695L21.389+26.3375L29+18.6965ZM44.252+25.0435L39.815+29.5115L44.283+33.9795L48.72+29.5115C48.72+29.5115+44.252+25.0435+44.252+25.0435ZM29+40.3265L21.359+32.6845L16.922+37.1525L29+49.2315L41.109+37.1225L36.641+32.6855L29+40.3265ZM29+33.9795L33.468+29.5115L29+25.0435L24.532+29.5115L29+33.9795Z" opacity="1" fill="#fffdfa"/>
<path stroke="#191326" stroke-width="3" d="M1.5+29.5115C1.5+14.3237+13.8122+2.0115+29+2.0115C44.1878+2.0115+56.5+14.3237+56.5+29.5115C56.5+44.6993+44.1878+57.0115+29+57.0115C13.8122+57.0115+1.5+44.6993+1.5+29.5115Z" fill="none" stroke-linecap="butt" opacity="0.1" stroke-linejoin="miter"/>
</g>
<g opacity="1">
<path d="M35+72.5C35+48.4756+54.4756+29+78.5+29C102.524+29+122+48.4756+122+72.5C122+96.5244+102.524+116+78.5+116C54.4756+116+35+96.5244+35+72.5Z" opacity="1" fill="#f5f3f3"/>
<path d="M78.5+87.883L78.5+103.034L97.147+76.851L78.5+87.883Z" opacity="1" fill="#2f3030"/>
<path d="M78.5+64.504L78.5+84.006L97.147+72.973C97.147+72.973+78.5+64.504+78.5+64.504Z" opacity="1" fill="#191326"/>
<path d="M78.5+42.05L78.5+64.504L97.147+72.973L78.5+42.05Z" opacity="1" fill="#2f3030"/>
<path d="M78.5+87.883L78.5+103.034L59.853+76.85L78.5+87.883Z" opacity="1" fill="#828384"/>
<path d="M78.5+64.504L78.5+84.006L59.853+72.973C59.853+72.973+78.5+64.504+78.5+64.504Z" opacity="1" fill="#343535"/>
<path d="M78.5+42.05L78.5+64.504L59.853+72.973L78.5+42.05Z" opacity="1" fill="#828384"/>
<path stroke="#191326" stroke-width="2.837" d="M36.418+72.5C36.418+49.2588+55.2588+30.418+78.5+30.418C101.741+30.418+120.582+49.2588+120.582+72.5C120.582+95.7412+101.741+114.582+78.5+114.582C55.2588+114.582+36.418+95.7412+36.418+72.5Z" fill="none" stroke-linecap="butt" opacity="0.2" stroke-linejoin="miter"/>
</g>
</g>
</svg>
