<?xml version="1.0" encoding="UTF-8" standalone="no"?> <!-- Created with Vectornator for iOS (http://vectornator.io/) --><!DOCTYPE svg PUBLIC "-//W3C//DTD SVG 1.1//EN" "http://www.w3.org/Graphics/SVG/1.1/DTD/svg11.dtd">
<svg height="100%" style="fill-rule:nonzero;clip-rule:evenodd;stroke-linecap:round;stroke-linejoin:round;" xmlns:xlink="http://www.w3.org/1999/xlink" xmlns="http://www.w3.org/2000/svg" xml:space="preserve" width="100%" xmlns:vectornator="http://vectornator.io" version="1.1" viewBox="0 0 124.167 115.249">
<metadata>
<vectornator:setting key="DimensionsVisible" value="0"/>
<vectornator:setting key="PencilOnly" value="0"/>
<vectornator:setting key="SnapToPoints" value="0"/>
<vectornator:setting key="OutlineMode" value="0"/>
<vectornator:setting key="CMYKEnabledKey" value="0"/>
<vectornator:setting key="RulersVisible" value="1"/>
<vectornator:setting key="SnapToEdges" value="0"/>
<vectornator:setting key="GuidesVisible" value="0"/>
<vectornator:setting key="DisplayWhiteBackground" value="0"/>
<vectornator:setting key="doHistoryDisabled" value="0"/>
<vectornator:setting key="SnapToGuides" value="1"/>
<vectornator:setting key="TimeLapseWatermarkDisabled" value="0"/>
<vectornator:setting key="Units" value="Points"/>
<vectornator:setting key="DynamicGuides" value="1"/>
<vectornator:setting key="IsolateActiveLayer" value="0"/>
<vectornator:setting key="SnapToGrid" value="0"/>
</metadata>
<defs>
<linearGradient y1="29" id="LinearGradient" x1="125.5" y2="116" x2="125.5" gradientUnits="userSpaceOnUse" gradientTransform="matrix(0.666667 0 0 0.666667 -54.6667 -19.5171)">
<stop stop-color="#54dade" offset="0"/>
<stop stop-color="#24c7d6" offset="0.762"/>
</linearGradient>
<linearGradient y1="52.268" id="LinearGradient_2" x1="119.469" y2="79.165" x2="119.469" gradientUnits="userSpaceOnUse" gradientTransform="matrix(0.666667 0 0 0.666667 -54.6667 -19.5171)">
<stop stop-color="#9f4a08" offset="0"/>
<stop stop-color="#7d3900" offset="0.37"/>
<stop stop-color="#8d4104" offset="1"/>
</linearGradient>
</defs>
<g id="Untitled" vectornator:layerName="Untitled">
<g opacity="1">
<path d="M21.6853+16.6902L22.8833+15.9275C23.1366+15.7665+23.4601+15.7665+23.7133+15.9275L24.912+16.6902C25.0233+16.7612+25.0907+16.8841+25.0907+17.0162C25.0907+17.1483+25.0233+17.2712+24.912+17.3422L23.7133+18.1049C23.4601+18.2659+23.1366+18.2659+22.8833+18.1049L21.6853+17.3422C21.574+17.2712+21.5066+17.1483+21.5066+17.0162C21.5066+16.8841+21.574+16.7612+21.6853+16.6902Z" opacity="1" fill="#9e7200"/>
<path d="M0+28.8162C0+12.7999+12.9837-0.183804+29-0.183804C45.0163-0.183804+58+12.7999+58+28.8162C58+44.8325+45.0163+57.8162+29+57.8162C12.9837+57.8162+0+44.8325+0+28.8162Z" opacity="1" fill="url(#LinearGradient)"/>
<path d="M10.1633+32.0029L10.156+32.3289C10.156+32.7409+10.192+33.1482+10.262+33.5489L10.156+33.5489L10.156+34.1802C10.156+34.4863+10.1758+34.792+10.2153+35.0955C10.9833+40.9869+19.1+45.6222+29+45.6222C38.9+45.6222+47.0173+40.9869+47.7853+35.0955C47.8249+34.792+47.8447+34.4863+47.8447+34.1802L47.8447+33.5489L47.7387+33.5489C47.8087+33.1482+47.8447+32.7409+47.8447+32.3289C47.8447+32.2195+47.842+32.1109+47.8373+32.0029C47.5527+25.8349+39.228+20.8875+29+20.8875C18.772+20.8875+10.4473+25.8342+10.1633+32.0029ZM8.61534+32.0029C8.75534+28.2395+11.3127+25.0782+14.8727+22.9169C18.5627+20.6769+23.5613+19.3409+29+19.3409C34.4387+19.3409+39.438+20.6762+43.1273+22.9169C46.6873+25.0782+49.2447+28.2395+49.3847+32.0029L49.3907+32.0029L49.3907+34.1802C49.3907+38.0869+46.7893+41.3689+43.1273+43.5922C39.438+45.8329+34.4393+47.1675+29+47.1675C23.5607+47.1675+18.5627+45.8322+14.8727+43.5922C11.2107+41.3689+8.60933+38.0869+8.60933+34.1802L8.60933+32.0029C8.60933+32.0029+8.61533+32.0029+8.61534+32.0029Z" opacity="1" fill="#606063"/>
<path d="M47.8447+34.1802C47.8447+40.4995+39.408+45.6215+29.0007+45.6215C18.5933+45.6215+10.156+40.4989+10.156+34.1802L10.156+32.3689L47.8447+32.3689L47.8447+34.1802Z" opacity="1" fill="#bebebe"/>
<path d="M47.8447+32.3289C47.8447+38.6482+39.408+43.7709+29.0007+43.7709C18.5933+43.7709+10.156+38.6482+10.156+32.3289C10.156+26.0095+18.5927+20.8875+29.0007+20.8875C39.4087+20.8875+47.8447+26.0102+47.8447+32.3295L47.8447+32.3289Z" opacity="1" fill="#f5f3f3"/>
<path d="M13.0553+29.0962L13.0553+29.1175C13.0553+29.6375+13.1307+30.1475+13.2753+30.6422L13.0553+30.6422L13.0553+31.3122C13.0553+31.6082+13.0793+31.9002+13.1273+32.1882C13.8453+36.5389+19.856+39.9342+27.164+39.9342C34.472+39.9342+40.4827+36.5382+41.2013+32.1882C41.2487+31.9002+41.2733+31.6075+41.2733+31.3122L41.2733+30.6422L41.0533+30.6422C41.1949+30.1608+41.269+29.662+41.2733+29.1602L41.2733+29.0962C41.2547+24.3442+34.9447+20.4955+27.1647+20.4955C19.3847+20.4955+13.0747+24.3442+13.0553+29.0962ZM11.5093+29.0962L11.5093+29.0962L11.5093+31.3129C11.5093+34.4362+13.5753+37.0135+16.382+38.7289C19.2153+40.4602+23.032+41.4809+27.1647+41.4809C31.2973+41.4809+35.114+40.4602+37.948+38.7289C40.7547+37.0135+42.82+34.4362+42.82+31.3129L42.82+29.1662L42.8207+29.1182C42.8207+25.9949+40.7547+23.4175+37.948+21.7015C35.1147+19.9702+31.298+18.9489+27.1653+18.9489C23.0327+18.9489+19.216+19.9695+16.382+21.7015C13.5813+23.4129+11.5193+25.9829+11.51+29.0962L11.5093+29.0962Z" opacity="1" fill="#612f01"/>
<path d="M41.2733+31.3129C41.2733+36.0749+34.9567+39.9355+27.1647+39.9355C19.3727+39.9355+13.0553+36.0749+13.0553+31.3129L13.0553+29.2895L41.2733+29.2895C41.2733+29.2895+41.2733+31.3129+41.2733+31.3129Z" opacity="1" fill="#fedc90"/>
<path d="M41.2733+29.1175C41.2733+33.8795+34.9567+37.7402+27.1647+37.7402C19.3727+37.7402+13.0553+33.8802+13.0553+29.1175C13.0553+24.3549+19.3727+20.4949+27.1647+20.4949C34.9567+20.4949+41.2733+24.3555+41.2733+29.1175Z" opacity="1" fill="#d1884f"/>
<path d="M17.308+24.4575L17.308+24.4789C17.308+24.9989+17.3833+25.5089+17.528+26.0035L17.3073+26.0035L17.3073+26.6735C17.3073+26.9695+17.332+27.2615+17.3793+27.5495C18.098+31.9002+24.1087+35.2955+31.4167+35.2955C38.7247+35.2955+44.7353+31.9002+45.454+27.5495C45.5013+27.2615+45.526+26.9689+45.526+26.6735L45.526+26.0035L45.306+26.0035C45.4476+25.5221+45.5216+25.0233+45.526+24.5215L45.526+24.4575C45.5067+19.7055+39.1973+15.8569+31.4167+15.8569C23.636+15.8569+17.3267+19.7055+17.308+24.4575ZM15.7613+24.4575L15.7613+24.4575L15.7613+26.6742C15.7613+29.7975+17.8267+32.3749+20.634+34.0902C23.4673+35.8215+27.2833+36.8422+31.4167+36.8422C35.55+36.8422+39.366+35.8215+42.1993+34.0902C45.0067+32.3749+47.072+29.7975+47.072+26.6742L47.072+24.4795C47.072+21.3562+45.0067+18.7789+42.2+17.0629C39.366+15.3309+35.55+14.3102+31.4167+14.3102C27.2833+14.3102+23.4673+15.3309+20.634+17.0629C17.8333+18.7742+15.7713+21.3442+15.7613+24.4575Z" opacity="1" fill="#612f01"/>
<path d="M45.5247+26.6742C45.5247+31.4362+39.208+35.2969+31.416+35.2969C23.624+35.2969+17.3067+31.4362+17.3067+26.6742L17.3067+24.6509L45.5247+24.6509C45.5247+24.6509+45.5247+26.6742+45.5247+26.6742Z" opacity="1" fill="#fedc90"/>
<path d="M45.5247+24.4789C45.5247+29.2409+39.208+33.1015+31.416+33.1015C23.624+33.1015+17.3067+29.2409+17.3067+24.4789C17.3067+19.7169+23.6233+15.8562+31.416+15.8562C39.2087+15.8562+45.5247+19.7169+45.5247+24.4789Z" opacity="1" fill="#d1884f"/>
<path d="M13.0553+19.8189L13.0553+19.8402C13.0553+20.3609+13.1307+20.8702+13.2753+21.3649L13.0553+21.3649L13.0553+22.0349C13.0553+22.3309+13.0793+22.6229+13.1273+22.9109C13.8453+27.2615+19.856+30.6569+27.164+30.6569C34.472+30.6569+40.4827+27.2615+41.2013+22.9109C41.2487+22.6229+41.2733+22.3302+41.2733+22.0349L41.2733+21.3649L41.0533+21.3649C41.1949+20.8834+41.269+20.3847+41.2733+19.8829L41.2733+19.8189C41.2547+15.0669+34.9447+11.2182+27.1647+11.2182C19.3847+11.2182+13.0747+15.0669+13.0553+19.8189ZM11.5093+19.8189L11.5093+19.8189L11.5093+22.0355C11.5093+25.1589+13.5753+27.7362+16.382+29.4515C19.2153+31.1829+23.032+32.2042+27.1647+32.2042C31.2973+32.2042+35.114+31.1835+37.948+29.4515C40.7547+27.7362+42.82+25.1589+42.82+22.0355L42.82+19.8889L42.8207+19.8409C42.8207+16.7175+40.7547+14.1402+37.948+12.4249C35.1147+10.6929+31.298+9.6722+27.1653+9.6722C23.0327+9.6722+19.216+10.6929+16.382+12.4249C13.5813+14.1362+11.5193+16.7055+11.51+19.8195L11.5093+19.8189Z" opacity="1" fill="#612f01"/>
<path d="M41.2733+22.0355C41.2733+26.7975+34.9567+30.6582+27.1647+30.6582C19.3727+30.6582+13.0553+26.7975+13.0553+22.0355L13.0553+20.0122L41.2733+20.0122L41.2733+22.0355Z" opacity="1" fill="#fedc90"/>
<path d="M41.2733+19.8402C41.2733+24.6022+34.9567+28.4629+27.1647+28.4629C19.3727+28.4629+13.0553+24.6022+13.0553+19.8402C13.0553+15.0782+19.3727+11.2175+27.1647+11.2175C34.9567+11.2175+41.2733+15.0782+41.2733+19.8402Z" opacity="1" fill="#d1884f"/>
<path d="M16.392+20.3769C16.392+21.9669+17.5473+23.3909+19.37+24.3489L18.1067+26.5362L18.1073+26.5362L18.1067+26.5362L18.1067+32.0715C18.1074+32.8032+18.7003+33.3961+19.432+33.3969C20.1637+33.3961+20.7566+32.8032+20.7573+32.0715L20.7573+27.6695L22.116+25.3162C22.9847+25.5002+23.9173+25.6002+24.888+25.6002C29.58+25.6002+33.3833+23.2615+33.3833+20.3769C33.3833+17.4922+29.58+15.1535+24.888+15.1535C20.196+15.1535+16.392+17.4922+16.392+20.3769Z" opacity="1" fill="url(#LinearGradient_2)"/>
<path d="M19.3707+24.3482L18.7907+24.0129C17.3067+23.0722+16.3933+21.7902+16.3933+20.3762C16.3933+17.4915+20.1967+15.1529+24.8887+15.1529C29.5807+15.1529+33.3847+17.4915+33.3847+20.3762C33.3847+23.2609+29.5813+25.5995+24.8887+25.5995C23.9575+25.6015+23.0287+25.5063+22.1173+25.3155L20.7587+27.6689L20.7587+32.0709C20.7579+32.8025+20.165+33.3955+19.4333+33.3962C18.7017+33.3955+18.1087+32.8025+18.108+32.0709L18.108+26.5355C18.108+26.5355+19.3707+24.3482+19.3707+24.3482ZM16.7553+26.5589L16.7553+32.0709C16.7564+33.5494+17.9548+34.7478+19.4333+34.7489C20.9122+34.7481+22.1109+33.5497+22.112+32.0709L22.112+28.0315L22.8167+26.8109C23.5032+26.9059+24.1956+26.9534+24.8887+26.9529C27.444+26.9529+29.822+26.3189+31.6047+25.2229C33.366+24.1402+34.7373+22.4649+34.7373+20.3769C34.7373+18.2889+33.366+16.6135+31.6047+15.5309C29.822+14.4342+27.444+13.8009+24.8887+13.8009C22.3333+13.8009+19.956+14.4349+18.1727+15.5309C16.412+16.6135+15.04+18.2889+15.04+20.3769C15.04+22.2095+16.09+23.7189+17.548+24.7995L16.946+25.8429C16.888+25.9402+16.8423+26.0443+16.81+26.1529C16.7711+26.2848+16.7527+26.422+16.7553+26.5595L16.7553+26.5589Z" opacity="1" fill="#633001"/>
<g opacity="1">
<path d="M19.0473+18.1762C19.0473+19.6709+20.9513+20.8822+23.2993+20.8822C25.6473+20.8822+27.5513+19.6709+27.5513+18.1762C27.5513+16.6815+25.648+15.4702+23.2993+15.4702C20.9507+15.4702+19.0473+16.6815+19.0473+18.1762Z" opacity="1" fill="#9e7200"/>
<path d="M19.0467+17.0162L27.5507+17.0162L27.5507+18.1755L19.0467+18.1755L19.0467+17.0162Z" opacity="1" fill="#9e7200"/>
</g>
<path d="M19.0473+17.0162C19.0473+18.5109+20.9513+19.7222+23.2993+19.7222C25.6473+19.7222+27.5513+18.5109+27.5513+17.0162C27.5513+15.5215+25.648+14.3102+23.2993+14.3102C20.9507+14.3102+19.0473+15.5215+19.0473+17.0162Z" opacity="1" fill="#f0b90b"/>
<path d="M19.5653+13.9615C20.5833+13.3142+21.9067+12.9575+23.2987+12.9575C24.6907+12.9575+26.014+13.3142+27.0313+13.9615C28.0333+14.5989+28.9033+15.6462+28.9033+17.0162L28.9033+18.1762C28.9033+19.5462+28.0333+20.5935+27.0313+21.2309C26.014+21.8789+24.69+22.2349+23.2987+22.2349C21.9073+22.2349+20.5833+21.8782+19.5653+21.2309C18.564+20.5935+17.6933+19.5462+17.6933+18.1762L17.6933+17.0162C17.6933+15.6462+18.564+14.5989+19.5653+13.9615ZM23.2987+14.3102C20.95+14.3102+19.0467+15.5215+19.0467+17.0162L19.0467+18.1762C19.0467+19.6709+20.95+20.8822+23.2987+20.8822C25.6473+20.8822+27.5507+19.6709+27.5507+18.1762L27.5507+17.0162C27.5507+15.5215+25.6467+14.3102+23.2987+14.3102Z" opacity="1" fill="#633001"/>
<path stroke="#191326" stroke-width="2.837" d="M0.945333+28.8162C0.945333+13.322+13.5058+0.761529+29+0.761529C44.4942+0.761529+57.0547+13.322+57.0547+28.8162C57.0547+44.3104+44.4942+56.8709+29+56.8709C13.5058+56.8709+0.945333+44.3104+0.945333+28.8162Z" fill="none" stroke-linecap="butt" opacity="0.2" stroke-linejoin="miter"/>
</g>
<g opacity="1">
<path d="M107.818+56.5939L104.257+54.7235L103.034+56.7875C104.85+61.3543+105.855+66.3605+105.855+71.6112C105.855+93.0322+89.1777+110.396+68.6067+110.396C56.3576+110.396+45.4905+104.239+38.7015+94.7352L35.1314+97.6275C42.7481+108.237+54.907+115.104+68.6067+115.104C91.6752+115.104+110.376+95.6314+110.376+71.6112C110.376+66.3329+109.472+61.2747+107.818+56.5939ZM32.013+78.8793L28.1501+82.4702C29.2696+87.003+31.0722+91.2499+33.4377+95.0853L36.8822+91.9399C34.6392+88.1533+33.0026+83.9342+32.1168+79.4318L32.038+79.3324L32.0888+79.286L32.013+78.8793ZM68.6067+28.1183C74.7167+28.1183+80.5204+29.4856+85.7507+31.9401L89.7644+39.69C76.4498+30.1024+59.6826+30.2923+46.5466+40.3604C37.337+47.4206+31.3588+58.7884+31.3588+71.611C31.3588+72.794+31.4097+73.9639+31.5094+75.1198L27.4927+79.3216C27.0619+76.8196+26.8376+74.2418+26.8376+71.611C26.8376+47.5909+45.5384+28.1183+68.6067+28.1183L68.6067+28.1183" fill-rule="evenodd" fill="#7dadff" opacity="1"/>
<path d="M94.6158+54.9294L43.0431+96.0488L94.8868+59.9281L95.295+67.4624L103.812+53.0836L118.297+60.692L110.596+45.823L124.167+36.5645L107.949+36.0744L107.036+19.2076L98.5191+33.5862L84.0334+25.978L91.7342+40.8475L78.1642+50.1053L84.3169+50.2918L27.1003+102.543L91.3357+50.5038L94.3812+50.5961L94.6158+54.9294" fill-rule="evenodd" fill="#ec9d2b" opacity="1"/>
<path d="M83.9243+86.0524L59.6472+100.478L59.7812+100.554L83.75+88.3503L83.4883+91.8145L88.2297+85.8027L94.3875+90.209L91.757+82.9277L98.5009+79.5778L91.1299+78.3086L91.7156+70.5536L86.9741+76.5643L80.8173+72.1593L83.4465+79.4404L76.7032+82.7904L79.4996+83.2726L50.284+103.426L82.6898+83.8219L84.0738+84.0596L83.9243+86.0524" fill-rule="evenodd" fill="#ec9d2b" opacity="1"/>
<path d="M61.3918+54.1297L33.7119+79.4721L61.7303+56.9487L62.239+61.1974L66.5298+52.7166L75.0117+56.4447L70.1031+48.3347L77.4445+42.55L68.2453+42.9213L67.1052+33.409L62.8145+41.8904L54.3327+38.1621L59.2412+46.2721L51.8998+52.0564L55.3898+51.9161L24.9247+83.7873L59.3722+51.7553L61.099+51.6856L61.3918+54.1297" fill-rule="evenodd" fill="#ec9d2b" opacity="1"/>
</g>
</g>
</svg>
