<?xml version="1.0" encoding="UTF-8" standalone="no"?> <!-- Created with Vectornator for iOS (http://vectornator.io/) --><!DOCTYPE svg PUBLIC "-//W3C//DTD SVG 1.1//EN" "http://www.w3.org/Graphics/SVG/1.1/DTD/svg11.dtd">
<svg height="100%" style="fill-rule:nonzero;clip-rule:evenodd;stroke-linecap:round;stroke-linejoin:round;" xmlns:xlink="http://www.w3.org/1999/xlink" xmlns="http://www.w3.org/2000/svg" xml:space="preserve" width="100%" xmlns:vectornator="http://vectornator.io" version="1.1" viewBox="0 0 66.5653 68.8353">
<metadata>
<vectornator:setting key="DimensionsVisible" value="0"/>
<vectornator:setting key="PencilOnly" value="0"/>
<vectornator:setting key="SnapToPoints" value="0"/>
<vectornator:setting key="OutlineMode" value="0"/>
<vectornator:setting key="CMYKEnabledKey" value="0"/>
<vectornator:setting key="RulersVisible" value="1"/>
<vectornator:setting key="SnapToEdges" value="0"/>
<vectornator:setting key="GuidesVisible" value="0"/>
<vectornator:setting key="DisplayWhiteBackground" value="0"/>
<vectornator:setting key="doHistoryDisabled" value="0"/>
<vectornator:setting key="SnapToGuides" value="1"/>
<vectornator:setting key="TimeLapseWatermarkDisabled" value="0"/>
<vectornator:setting key="Units" value="Points"/>
<vectornator:setting key="DynamicGuides" value="1"/>
<vectornator:setting key="IsolateActiveLayer" value="0"/>
<vectornator:setting key="SnapToGrid" value="0"/>
</metadata>
<defs/>
<g id="g8" vectornator:layerName="g8">
<g opacity="1">
<path d="M41.1434+15.1192L42.8935+15.0884L43.4715+13.3915L44.046+15.0884L45.7926+15.1192L44.4191+16.1646L44.9077+17.8674L43.4715+16.8458L42.0316+17.8674L42.5171+16.1646L41.1434+15.1192" fill-rule="evenodd" fill="#fef7db" opacity="1"/>
<path d="M59.8659+39.5575L60.8797+39.5421L61.2131+38.5615L61.5434+39.5421L62.5572+39.5575L61.7614+40.1618L62.0419+41.1465L61.2129+40.5556L60.381+41.1465L60.6614+40.1618L59.8657+39.5575" fill-rule="evenodd" fill="#fef7db" opacity="1"/>
<path d="M48.5037+46.3671L49.0881+46.3548L49.2797+45.7888L49.4709+46.3548L50.0554+46.3671L49.5965+46.7157L49.7581+47.2838L49.2792+46.943L48.8005+47.2838L48.9621+46.7157L48.5032+46.3671" fill-rule="evenodd" fill="#fef7db" opacity="1"/>
<path d="M38.548+62.4465L39.1292+62.4342L39.3239+61.8682L39.5154+62.4342L40.0999+62.4465L39.6408+62.7956L39.8024+63.3635L39.3237+63.0228L38.8416+63.3635L39.0031+62.7956L38.5475+62.4465" fill-rule="evenodd" fill="#fef7db" opacity="1"/>
<path d="M27.8721+11.5316L30.4348+11.4877L31.2801+9.00386L32.1222+11.4877L34.6812+11.5316L32.667+13.0617L33.3835+15.5546L31.2801+14.0589L29.1742+15.5546L29.884+13.0617L27.8721+11.5316" fill-rule="evenodd" fill="#fef7db" opacity="1"/>
<path d="M27.8721+45.4227L30.4348+45.3791L31.2801+42.8952L32.1222+45.3791L34.6812+45.4227L32.667+46.9531L33.3835+49.4455L31.2801+47.9501L29.1742+49.4455L29.884+46.9531L27.8721+45.4227" fill-rule="evenodd" fill="#fef7db" opacity="1"/>
<path d="M14.944+38.4442L15.9557+38.429L16.2903+37.4479L16.6228+38.429L17.6336+38.4442L16.8383+39.0489L17.1204+40.0332L16.2903+39.4428L15.4586+40.0332L15.7388+39.0489L14.944+38.4442" fill-rule="evenodd" fill="#fef7db" opacity="1"/>
<path d="M3.58176+45.2537L4.16551+45.2413L4.3584+44.6755L4.55014+45.2413L5.13342+45.2537L4.67481+45.6024L4.83752+46.1703L4.3584+45.8296L3.87859+46.1703L4.04037+45.6024L3.58153+45.2537" fill-rule="evenodd" fill="#fef7db" opacity="1"/>
<path d="M18.6967+57.841L19.2807+57.8288L19.4736+57.2628L19.6653+57.8288L20.2484+57.841L19.7898+58.1897L19.9522+58.7575L19.4736+58.4169L18.9933+58.7575L19.1551+58.1897L18.6967+57.841" fill-rule="evenodd" fill="#fef7db" opacity="1"/>
<path d="M35.4967+59.3662L36.0812+59.3537L36.2727+58.788L36.4642+59.3537L37.0486+59.3662L36.5896+59.7149L36.7511+60.2827L36.2725+59.9421L35.7936+60.2827L35.9554+59.7149L35.4963+59.3662" fill-rule="evenodd" fill="#fef7db" opacity="1"/>
<path d="M11.5544+54.2185L13.3045+54.1878L13.8832+52.491L14.4579+54.1878L16.2064+54.2185L14.831+55.2641L15.3187+56.9669L13.8832+55.9453L12.444+56.9669L12.9291+55.2641L11.5544+54.2185" fill-rule="evenodd" fill="#fef7db" opacity="1"/>
<path d="M6.98514+22.3141C6.98514+22.3141+12.3638-1.27577+37.336+1.56726C62.3094+4.41033+62.7717+24.1582+62.0025+31.5349C61.233+38.9116+3.91131+38.9885+6.98514+22.3141" fill-rule="evenodd" fill="#eeeeeb" opacity="1"/>
<path d="M40.8396+2.10553C40.8396+2.10553+54.0015+4.39917+58.6542+13.6254C63.3101+22.852+62.7321+32.1497+62.7321+32.1497L30.8839+26.0519C30.8839+26.0519+48.583+28.615+50.7193+18.3187C52.8591+8.02181+40.8396+2.10553+40.8396+2.10553" fill-rule="evenodd" fill="#cacac5" opacity="1"/>
<path d="M6.86553+28.4726C6.86553+28.4726+6.85631+28.3124+6.85631+28.0156C6.85655+25.8014+7.31124+15.9904+14.9714+8.47551C23.658-0.0463989+35.5087+0.953459+40.8383+2.10551C40.8383+2.10551+29.5747-0.276878+23.2736+8.94371C16.9727+18.1647+25.6558+24.3887+25.6558+24.3887L6.86415+28.4726" fill-rule="evenodd" fill="#fbfcfb" opacity="1"/>
<path d="M9.44388+53.8954C9.44388+53.8954+7.06188+54.6642+7.9072+57.8913C8.75251+61.1186+13.3628+63.9617+26.1951+66.4205C39.0269+68.8794+52.5519+64.7301+54.1633+62.0406C55.7781+59.3514+53.8563+56.5173+53.8563+56.5173L9.44388+53.8954" fill-rule="evenodd" fill="#cacac5" opacity="1"/>
<path d="M4.50958+44.4441C4.50958+44.4441+4.53101+60.2491+28.2346+62.2709C51.9377+64.2931+58.3898+52.5889+59.6974+48.1326C61.005+43.6758+8.33492+34.3011+4.50958+44.4441" fill-rule="evenodd" fill="#cacac5" opacity="1"/>
<path d="M62.1905+42.0621C62.1905+42.0621+56.412+22.852+35.9625+21.4112C15.5143+19.9706+3.64237+29.3983+3.29669+34.1934C2.95077+38.9883+8.11115+52.6486+32.1155+53.4985C56.1214+54.348+61.6489+44.6672+62.1905+42.0621" fill-rule="evenodd" fill="#27357a" opacity="1"/>
<path d="M3.29669+34.1934C3.29669+33.8401+4.50958+23.9278+4.50958+23.9278C4.50958+23.9278+9.75108+11.0188+35.2624+13.17C60.7739+15.3218+64.1552+29.9215+64.2312+30.9972C64.307+32.073+62.1905+42.0624+62.1905+42.0624C62.1905+42.0624+59.2351+23.8512+35.8765+22.0836C12.5172+20.3165+3.29669+34.1934+3.29669+34.1934" fill-rule="evenodd" fill="#fbfcfb" opacity="1"/>
<path d="M3.29669+34.8389C3.29669+34.8389+9.015+49.5886+32.6008+51.2023C56.1874+52.8157+62.1905+42.4463+62.1905+42.4463C62.1905+42.4463+61.2493+48.4474+59.6875+50.7102C56.8543+54.8177+45.2411+59.1507+30.5735+58.045C11.211+56.585+4.43145+46.0071+3.68062+44.2139C2.29789+40.9096+3.29669+34.8389+3.29669+34.8389" fill-rule="evenodd" fill="#fbfcfb" opacity="1"/>
<path d="M3.29669+34.1934C3.29669+34.1934+9.57777+49.9686+32.6008+51.2023C55.626+52.4357+62.1905+42.0624+62.1905+42.0624L61.5994+45.4162C61.5994+45.4162+55.2199+54.6716+32.5679+52.8781C9.91747+51.0847+2.94754+36.2784+2.94754+36.2784L3.29669+34.1934" fill-rule="evenodd" fill="#949290" opacity="1"/>
<path d="M3.63615+31.1639C3.63615+31.1639+14.097+18.8225+36.3388+20.3163C58.5781+21.8101+62.7321+39.4571+62.7321+39.4571L62.1905+42.0624C62.1905+42.0624+59.0072+24.1582+35.8765+22.0836C12.9157+20.024+3.29669+34.1934+3.29669+34.1934L3.63615+31.1639" fill-rule="evenodd" fill="#949290" opacity="1"/>
<path d="M15.2894+25.0934C12.9016+26.5404+11.2795+42.5442+16.7394+47.2979C16.7394+47.2979+20.5862+49.9726+29.8068+50.9734C29.8068+50.9734+27.8931+44.8638+32.1157+36.2784C36.3388+27.6932+44.5675+24.7226+47.7904+25.0934C47.7904+25.0934+41.6783+21.7903+31.4981+21.8795C21.3156+21.9684+15.2894+25.0934+15.2894+25.0934" fill-rule="evenodd" fill="#1b66b3" opacity="1"/>
<path d="M9.73656+42.6162C9.73656+42.6162+15.5141+49.6612+31.65+51.2023C47.787+52.7429+57.9969+47.9786+62.1905+42.4461C62.1905+42.4461+61.8174+34.4827+51.9608+27.2459C42.1009+20.0088+23.5755+20.3697+12.8214+26.2982C12.8214+26.2982+24.135+21.0715+35.9623+23.0824C47.7902+25.0934+55.3948+36.0484+56.1643+39.9002C56.1643+39.9002+51.0231+49.746+36.57+50.1304C22.1132+50.5144+15.5293+47.2631+9.73656+42.6162" fill-rule="evenodd" fill="#212e56" opacity="1"/>
<path d="M4.50958+23.9278C4.50958+23.9278+1.02969+26.5321+0.530288+27.4954C0.0308852+28.4583-0.276544+37.1444-0.238284+38.4509C-0.199568+39.7571+3.44648+43.5571+3.44648+43.5571C3.44648+43.5571+3.18837+41.7367+3.58453+34.1934C3.98114+26.6499+4.50935+23.9278+4.50935+23.9278" fill-rule="evenodd" fill="#eeeeeb" opacity="1"/>
<path d="M64.2312+30.997C64.2312+30.997+62.5374+39.8117+61.8174+44.1641C61.1009+48.5165+59.8429+50.4708+59.8429+50.4708C59.8429+50.4708+64.4425+47.7602+64.8454+47.0914C65.2482+46.4228+66.8068+37.4901+66.8068+35.8186C66.8068+34.1473+64.2312+30.997+64.2312+30.997" fill-rule="evenodd" fill="#eeeeeb" opacity="1"/>
<path d="M3.29669+25.8106C2.98926+26.0023+1.1834+27.1551+1.02969+28.1541C0.875738+29.1529+0.29983+37.5286+0.415057+38.2969C0.530288+39.0653+1.29863+39.7184+1.29863+39.7184L3.29669+25.8106" fill-rule="evenodd" fill="#ffffff" opacity="1"/>
<path d="M64.5778+32.1497C64.5778+32.1497+62.5009+43.3686+61.7347+47.5562C61.7347+47.5562+62.5701+47.4025+63.323+45.7119C64.0759+44.0217+66.153+36.76+66.1892+35.6843C66.2288+34.6085+64.5778+32.1497+64.5778+32.1497" fill-rule="evenodd" fill="#ffffff" opacity="1"/>
<path d="M4.65845+45.858C4.65845+45.858+12.6638+56.5714+29.188+57.9228C45.7133+59.2745+54.3183+55.0878+57.3926+52.8781C57.3926+52.8781+52.0896+64.5035+29.8063+62.5038C29.8063+62.5038+32.5646+62.9576+34.5261+61.7309C36.4907+60.5037+27.3238+61.4166+18.4342+58.2201C9.54436+55.0235+5.25188+50.4994+4.65845+45.858" fill-rule="evenodd" fill="#949290" opacity="1"/>
<path d="M8.03049+55.1922C8.03049+55.1922+6.29331+57.3347+9.29017+60.5328C12.2868+63.7313+21.5652+66.9392+33.4957+67.4577C45.4227+67.9765+52.5321+64.173+54.1633+62.0406C55.7979+59.9084+54.0644+56.8729+54.0644+56.8729C54.0644+56.8729+47.1795+64.0092+28.2348+62.2711C28.2348+62.2711+32.0528+63.8847+39.258+63.5967C46.463+63.3086+49.2863+61.5885+49.5175+62.1317C49.7454+62.6746+45.9016+66.6571+30.4315+65.6715C15.0534+64.6918+11.2497+60.715+9.23255+58.9862C7.2156+57.2573+8.03049+55.1922+8.03049+55.1922" fill-rule="evenodd" fill="#949290" opacity="1"/>
<path d="M8.49325+53.8954C8.49325+53.8954+13.1823+60.8063+29.188+62.3458C45.195+63.8847+54.0642+56.8729+54.0642+56.8729L54.3711+57.5281C54.3711+57.5281+48.1006+64.8561+29.188+63.1355C10.2758+61.4147+7.52994+54.2966+7.52994+54.2966C7.52994+54.2966+7.29234+53.4153+8.49302+53.8954" fill-rule="evenodd" fill="#212e56" opacity="1"/>
<path d="M34.7572+13.1295C34.7572+13.1295+43.524+13.28+51.8617+17.3169C51.8617+17.3169+51.4259+9.83274+46.0533+5.83462C46.0533+5.83462+48.5265+7.58042+48.421+11.1532C48.3152+14.7261+40.0139+13.33+34.7572+13.1295" fill-rule="evenodd" fill="#cacac5" opacity="1"/>
<path d="M44.6666+3.02114C44.6666+3.02114+51.7792+4.37039+57.2606+11.373C62.7452+18.3756+62.5572+26.7142+62.5572+26.7142C62.5572+26.7142+58.0234+16.0862+37.9898+13.3922C37.9898+13.3922+47.0772+14.5053+51.7958+16.6675C56.5111+18.8296+57.9575+17.4471+54.9855+11.5757C52.0138+5.70406+44.6666+3.02114+44.6666+3.02114" fill-rule="evenodd" fill="#949290" opacity="1"/>
</g>
</g>
</svg>
