<?xml version="1.0" encoding="UTF-8" standalone="no"?> <!-- Created with Vectornator for iOS (http://vectornator.io/) --><!DOCTYPE svg PUBLIC "-//W3C//DTD SVG 1.1//EN" "http://www.w3.org/Graphics/SVG/1.1/DTD/svg11.dtd">
<svg height="100%" style="fill-rule:nonzero;clip-rule:evenodd;stroke-linecap:round;stroke-linejoin:round;" xmlns:xlink="http://www.w3.org/1999/xlink" xmlns="http://www.w3.org/2000/svg" xml:space="preserve" width="100%" xmlns:vectornator="http://vectornator.io" version="1.1" viewBox="0 0 193 230">
<metadata>
<vectornator:setting key="DimensionsVisible" value="0"/>
<vectornator:setting key="PencilOnly" value="0"/>
<vectornator:setting key="SnapToPoints" value="0"/>
<vectornator:setting key="OutlineMode" value="0"/>
<vectornator:setting key="CMYKEnabledKey" value="0"/>
<vectornator:setting key="RulersVisible" value="1"/>
<vectornator:setting key="SnapToEdges" value="0"/>
<vectornator:setting key="GuidesVisible" value="0"/>
<vectornator:setting key="DisplayWhiteBackground" value="0"/>
<vectornator:setting key="doHistoryDisabled" value="0"/>
<vectornator:setting key="SnapToGuides" value="1"/>
<vectornator:setting key="TimeLapseWatermarkDisabled" value="0"/>
<vectornator:setting key="Units" value="Points"/>
<vectornator:setting key="DynamicGuides" value="1"/>
<vectornator:setting key="IsolateActiveLayer" value="0"/>
<vectornator:setting key="SnapToGrid" value="0"/>
</metadata>
<defs/>
<g id="g10" vectornator:layerName="g10" opacity="0.2">
<g opacity="1">
<path d="M184.89+35.0174L181.598+33.2654L180.469+35.1987C182.148+39.4761+183.076+44.1651+183.076+49.083C183.076+69.1468+167.663+85.4104+148.651+85.4104C137.33+85.4104+127.287+79.6428+121.012+70.7419L117.713+73.4509C124.752+83.3879+135.989+89.8199+148.651+89.8199C169.971+89.8199+187.254+71.5813+187.254+49.083C187.254+44.1392+186.419+39.4016+184.89+35.0174ZM114.831+55.8907L111.261+59.2541C112.295+63.4996+113.961+67.4774+116.147+71.0698L119.331+68.1237C117.258+64.577+115.745+60.6253+114.927+56.4082L114.854+56.3151L114.901+56.2716L114.831+55.8907ZM148.651+8.34604C154.298+8.34604+159.662+9.62673+164.495+11.9257L168.205+19.1845C155.899+10.2045+140.403+10.3823+128.263+19.8124C119.751+26.4253+114.226+37.0728+114.226+49.0829C114.226+50.191+114.273+51.2867+114.365+52.3694L110.653+56.3049C110.255+53.9615+110.048+51.547+110.048+49.0829C110.048+26.5848+127.331+8.34604+148.651+8.34604L148.651+8.34604" fill-rule="evenodd" fill="#464648" opacity="1"/>
<path d="M172.689+33.4582L125.025+71.9722L172.939+38.1403L173.316+45.1971L181.188+31.7295L194.575+38.8558L187.458+24.9289L200+16.2571L185.012+15.798L184.167+0L176.296+13.4675L162.908+6.34135L170.025+20.2687L157.484+28.9399L163.17+29.1146L110.29+78.0548L169.657+29.3131L172.472+29.3996L172.689+33.4582" fill-rule="evenodd" fill="#ec9d2b" opacity="1"/>
<path d="M162.807+62.6093L140.37+76.1205L140.494+76.1925L162.646+64.7615L162.404+68.0063L166.786+62.3754L172.478+66.5024L170.046+59.6825L176.279+56.5449L169.467+55.3561L170.008+48.0926L165.626+53.7224L159.936+49.5965L162.366+56.4162L156.134+59.554L158.718+60.0056L131.717+78.8812L161.667+60.5201L162.946+60.7427L162.807+62.6093" fill-rule="evenodd" fill="#ec9d2b" opacity="1"/>
<path d="M141.983+32.7093L116.401+56.4459L142.296+35.3496L142.766+39.3291L146.731+31.3857L154.57+34.8776L150.034+27.2814L156.819+21.8633L148.317+22.211L147.263+13.3015L143.298+21.2455L135.459+17.7535L139.995+25.3497L133.21+30.7673L136.436+30.6359L108.28+60.4877L140.116+30.4854L141.712+30.42L141.983+32.7093" fill-rule="evenodd" fill="#ec9d2b" opacity="1"/>
</g>
</g>
</svg>
