<?xml version="1.0" encoding="UTF-8" standalone="no"?> <!-- Created with Vectornator for iOS (http://vectornator.io/) --><!DOCTYPE svg PUBLIC "-//W3C//DTD SVG 1.1//EN" "http://www.w3.org/Graphics/SVG/1.1/DTD/svg11.dtd">
<svg height="100%" style="fill-rule:nonzero;clip-rule:evenodd;stroke-linecap:round;stroke-linejoin:round;" xmlns:xlink="http://www.w3.org/1999/xlink" xmlns="http://www.w3.org/2000/svg" xml:space="preserve" width="100%" xmlns:vectornator="http://vectornator.io" version="1.1" viewBox="0 0 64.3112 64">
<g id="g10" vectornator:layerName="g10">
<path d="M53.7683+24.8062L51.4714+23.6478L50.6833+24.9261C51.8545+27.7544+52.5021+30.8548+52.5021+34.1066C52.5021+47.373+41.7476+58.1267+28.4819+58.1267C20.5828+58.1267+13.5749+54.3131+9.19684+48.4277L6.89462+50.2189C11.8064+56.7894+19.6473+61.0423+28.4819+61.0423C43.3581+61.0423+55.4176+48.9827+55.4176+34.1066C55.4176+30.8377+54.8351+27.7051+53.7683+24.8062ZM4.88368+38.6079L2.3926+40.8318C3.1145+43.639+4.27694+46.2692+5.80239+48.6445L8.0236+46.6965C6.5772+44.3514+5.52181+41.7385+4.95059+38.9501L4.89973+38.8885L4.93248+38.8598L4.88368+38.6079ZM28.4819+7.1708C32.4221+7.1708+36.1647+8.01761+39.5376+9.5377L42.1259+14.3373C33.5397+8.39962+22.727+8.5172+14.256+14.7525C8.31693+19.125+4.46179+26.1653+4.46179+34.1065C4.46179+34.8392+4.49462+35.5637+4.55885+36.2796L1.96866+38.8818C1.69076+37.3323+1.54615+35.7358+1.54615+34.1065C1.54615+19.2305+13.6058+7.1708+28.4819+7.1708L28.4819+7.1708" fill-rule="evenodd" fill="#7dadff" opacity="1"/>
<path d="M45.2545+23.7753L11.9966+49.2412L45.4292+26.8711L45.6925+31.5372L51.1849+22.6322L60.5257+27.3442L55.5597+18.1356L64.3112+12.4017L53.8533+12.0981L53.2634+1.6523L47.7717+10.5572L38.4302+5.84528L43.3962+15.0542L34.6453+20.7877L38.613+20.9032L1.71557+53.2631L43.1392+21.0345L45.1032+21.0917L45.2545+23.7753" fill-rule="evenodd" fill="#ec9d2b" opacity="1"/>
<path d="M38.3598+43.0503L22.7042+51.9841L22.7906+52.0317L38.2474+44.4734L38.0786+46.6189L41.1362+42.8957L45.1072+45.6245L43.4109+41.1151L47.7596+39.0405L43.0065+38.2544L43.3842+33.4517L40.3265+37.1742L36.3562+34.4461L38.0517+38.9554L33.7031+41.0301L35.5065+41.3287L16.6661+53.8095L37.5637+41.6689L38.4562+41.8161L38.3598+43.0503" fill-rule="evenodd" fill="#ec9d2b" opacity="1"/>
<path d="M23.8292+23.2801L5.97921+38.975L24.0475+25.0259L24.3756+27.6572L27.1426+22.4049L32.6123+24.7138L29.4469+19.6911L34.1812+16.1086L28.2489+16.3385L27.5136+10.4474L24.7467+15.7001L19.277+13.3911L22.4424+18.4138L17.7081+21.996L19.9587+21.9091L0.31261+41.6475L22.5268+21.8096L23.6404+21.7664L23.8292+23.2801" fill-rule="evenodd" fill="#ec9d2b" opacity="1"/>
</g>
</svg>
